<svg xmlns="http://www.w3.org/2000/svg" width="1400" height="900" viewBox="0 0 1400 900"><rect width="1400" height="900" fill="white"/><title>Folio — Plan</title><style>text{font-family:Arial,Helvetica,sans-serif;fill:#111}.t{font-size:28px;font-weight:700}.h{font-size:20px;font-weight:700}.b{font-size:16px}.s{font-size:13px}.box{fill:white;stroke:#111;stroke-width:2}.soft{fill:#f1f1f1;stroke:#111;stroke-width:2}</style><rect x="40" y="40" width="1320" height="820" rx="10" class="box"/><rect x="40" y="40" width="1320" height="60" rx="10" class="soft"/><text x="70" y="79" class="h" text-anchor="start">Folio — Plan</text><text x="85" y="155" class="t" text-anchor="start">Select coursework and create or revise a plan</text><text x="85" y="196" class="s" text-anchor="start">Coursework</text><rect x="85" y="205" width="585" height="44" rx="5" class="box"/><text x="97" y="233" class="b" text-anchor="start">Select coursework</text><text x="85" y="281" class="s" text-anchor="start">Planning template</text><rect x="85" y="290" width="585" height="44" rx="5" class="box"/><text x="97" y="318" class="b" text-anchor="start">Select planning template</text><text x="85" y="395" class="h" text-anchor="start">Suggested tasks</text><rect x="85" y="430" width="800" height="42" rx="5" class="box"/><text x="100" y="457" class="b" text-anchor="start">Editable suggested task</text><rect x="85" y="488" width="800" height="42" rx="5" class="box"/><text x="100" y="515" class="b" text-anchor="start">Editable suggested task</text><rect x="85" y="546" width="800" height="42" rx="5" class="box"/><text x="100" y="573" class="b" text-anchor="start">Editable suggested task</text><rect x="715" y="620" width="170" height="44" rx="5" class="soft"/><text x="800.0" y="649" class="b" text-anchor="middle">Save Plan</text><rect x="85" y="695" width="800" height="115" rx="7" class="soft"/><text x="105" y="728" class="h" text-anchor="start">Instructor suggestion</text><text x="105" y="760" class="b" text-anchor="start">Suggestion content</text><rect x="930" y="700" width="115" height="44" rx="5" class="soft"/><text x="987.5" y="729" class="b" text-anchor="middle">Accept</text><rect x="1060" y="700" width="115" height="44" rx="5" class="soft"/><text x="1117.5" y="729" class="b" text-anchor="middle">Reject</text><rect x="1190" y="700" width="125" height="44" rx="5" class="soft"/><text x="1252.5" y="729" class="b" text-anchor="middle">Adapt</text><rect x="930" y="765" width="180" height="44" rx="5" class="soft"/><text x="1020.0" y="794" class="b" text-anchor="middle">Revise Plan</text><rect x="1125" y="765" width="190" height="44" rx="5" class="soft"/><text x="1220.0" y="794" class="b" text-anchor="middle">Keep Current Plan</text></svg>